<svg width="45" height="54" viewBox="0 0 45 54" fill="none" xmlns="http://www.w3.org/2000/svg">
<path d="M3.97964 49.6039C4.6143 49.6039 5.0763 49.4966 5.36564 49.2819C5.65497 49.0673 5.79964 48.7639 5.79964 48.3719C5.79964 48.1386 5.7483 47.9379 5.64564 47.7699C5.5523 47.6019 5.4123 47.4526 5.22564 47.3219C5.0483 47.1819 4.82897 47.0559 4.56764 46.9439C4.3063 46.8226 4.00764 46.7059 3.67164 46.5939C3.33564 46.4726 3.00897 46.3419 2.69164 46.2019C2.38364 46.0526 2.1083 45.8706 1.86564 45.6559C1.6323 45.4413 1.44097 45.1846 1.29164 44.8859C1.15164 44.5873 1.08164 44.2279 1.08164 43.8079C1.08164 42.9306 1.38497 42.2446 1.99164 41.7499C2.5983 41.2459 3.4243 40.9939 4.46964 40.9939C5.0763 40.9939 5.61297 41.0639 6.07964 41.2039C6.55564 41.3346 6.92897 41.4793 7.19964 41.6379L6.65364 43.0659C6.3363 42.8886 5.9863 42.7533 5.60364 42.6599C5.2303 42.5666 4.84297 42.5199 4.44164 42.5199C3.96564 42.5199 3.5923 42.6179 3.32164 42.8139C3.0603 43.0099 2.92964 43.2853 2.92964 43.6399C2.92964 43.8546 2.97164 44.0413 3.05564 44.1999C3.14897 44.3493 3.27497 44.4846 3.43364 44.6059C3.60164 44.7273 3.79297 44.8393 4.00764 44.9419C4.23164 45.0446 4.4743 45.1426 4.73564 45.2359C5.19297 45.4039 5.59897 45.5766 5.95364 45.7539C6.31764 45.9219 6.62097 46.1273 6.86364 46.3699C7.11564 46.6033 7.30697 46.8833 7.43764 47.2099C7.5683 47.5273 7.63364 47.9146 7.63364 48.3719C7.63364 49.2493 7.32097 49.9306 6.69564 50.4159C6.07964 50.8919 5.1743 51.1299 3.97964 51.1299C3.5783 51.1299 3.20964 51.1019 2.87364 51.0459C2.54697 50.9993 2.25297 50.9386 1.99164 50.8639C1.73964 50.7893 1.5203 50.7146 1.33364 50.6399C1.14697 50.5559 0.997637 50.4813 0.885637 50.4159L1.40364 48.9739C1.65564 49.1139 1.9963 49.2539 2.42564 49.3939C2.85497 49.5339 3.37297 49.6039 3.97964 49.6039ZM11.9322 41.1199C13.3415 41.1199 14.4195 41.3766 15.1662 41.8899C15.9222 42.4033 16.3002 43.2059 16.3002 44.2979C16.3002 44.8673 16.1975 45.3573 15.9922 45.7679C15.7962 46.1693 15.5069 46.5006 15.1242 46.7619C14.7415 47.0139 14.2749 47.2006 13.7242 47.3219C13.1735 47.4433 12.5435 47.5039 11.8342 47.5039H10.9522V50.9199H9.18818V41.3579C9.59885 41.2646 10.0515 41.2039 10.5462 41.1759C11.0502 41.1386 11.5122 41.1199 11.9322 41.1199ZM12.0582 42.6459C11.6102 42.6459 11.2415 42.6599 10.9522 42.6879V45.9919H11.8062C12.6555 45.9919 13.3089 45.8753 13.7662 45.6419C14.2235 45.3993 14.4522 44.9466 14.4522 44.2839C14.4522 43.9666 14.3915 43.7006 14.2702 43.4859C14.1489 43.2713 13.9809 43.1033 13.7662 42.9819C13.5515 42.8606 13.2949 42.7766 12.9962 42.7299C12.7069 42.6739 12.3942 42.6459 12.0582 42.6459ZM19.3528 46.0619C19.3528 46.5939 19.4182 47.0793 19.5488 47.5179C19.6795 47.9473 19.8662 48.3159 20.1088 48.6239C20.3608 48.9226 20.6642 49.1559 21.0188 49.3239C21.3735 49.4919 21.7748 49.5759 22.2228 49.5759C22.6615 49.5759 23.0582 49.4919 23.4128 49.3239C23.7675 49.1559 24.0662 48.9226 24.3088 48.6239C24.5608 48.3159 24.7522 47.9473 24.8828 47.5179C25.0135 47.0793 25.0788 46.5939 25.0788 46.0619C25.0788 45.5299 25.0135 45.0493 24.8828 44.6199C24.7522 44.1813 24.5608 43.8126 24.3088 43.5139C24.0662 43.2059 23.7675 42.9679 23.4128 42.7999C23.0582 42.6319 22.6615 42.5479 22.2228 42.5479C21.7748 42.5479 21.3735 42.6319 21.0188 42.7999C20.6642 42.9679 20.3608 43.2059 20.1088 43.5139C19.8662 43.8219 19.6795 44.1906 19.5488 44.6199C19.4182 45.0493 19.3528 45.5299 19.3528 46.0619ZM26.9268 46.0619C26.9268 46.8926 26.8008 47.6253 26.5488 48.2599C26.3062 48.8946 25.9702 49.4266 25.5408 49.8559C25.1208 50.2759 24.6262 50.5933 24.0568 50.8079C23.4875 51.0226 22.8808 51.1299 22.2368 51.1299C21.5928 51.1299 20.9815 51.0226 20.4028 50.8079C19.8335 50.5933 19.3342 50.2759 18.9048 49.8559C18.4848 49.4266 18.1488 48.8946 17.8968 48.2599C17.6448 47.6253 17.5188 46.8926 17.5188 46.0619C17.5188 45.2313 17.6448 44.5033 17.8968 43.8779C18.1488 43.2433 18.4895 42.7113 18.9188 42.2819C19.3575 41.8526 19.8615 41.5306 20.4308 41.3159C21.0002 41.1013 21.6022 40.9939 22.2368 40.9939C22.8715 40.9939 23.4735 41.1013 24.0428 41.3159C24.6122 41.5306 25.1068 41.8526 25.5268 42.2819C25.9562 42.7113 26.2968 43.2433 26.5488 43.8779C26.8008 44.5033 26.9268 45.2313 26.9268 46.0619ZM31.536 41.1199C32.936 41.1199 34.0047 41.3766 34.742 41.8899C35.4887 42.4033 35.862 43.1873 35.862 44.2419C35.862 45.5579 35.2133 46.4493 33.916 46.9159C34.0933 47.1306 34.294 47.3919 34.518 47.6999C34.742 48.0079 34.9707 48.3439 35.204 48.7079C35.4373 49.0626 35.6613 49.4313 35.876 49.8139C36.0907 50.1873 36.282 50.5559 36.45 50.9199H34.476C34.2987 50.5839 34.1073 50.2479 33.902 49.9119C33.6967 49.5666 33.4867 49.2353 33.272 48.9179C33.0667 48.5913 32.8613 48.2879 32.656 48.0079C32.4507 47.7186 32.2593 47.4619 32.082 47.2379C31.9513 47.2473 31.8393 47.2519 31.746 47.2519C31.6527 47.2519 31.564 47.2519 31.48 47.2519H30.626V50.9199H28.862V41.3579C29.2913 41.2646 29.7487 41.2039 30.234 41.1759C30.7193 41.1386 31.1533 41.1199 31.536 41.1199ZM31.662 42.6459C31.2887 42.6459 30.9433 42.6599 30.626 42.6879V45.8239H31.396C31.8253 45.8239 32.2033 45.8006 32.53 45.7539C32.8567 45.7073 33.1273 45.6233 33.342 45.5019C33.566 45.3806 33.734 45.2173 33.846 45.0119C33.958 44.8066 34.014 44.5453 34.014 44.2279C34.014 43.9293 33.958 43.6773 33.846 43.4719C33.734 43.2666 33.5707 43.1033 33.356 42.9819C33.1507 42.8606 32.9033 42.7766 32.614 42.7299C32.3247 42.6739 32.0073 42.6459 31.662 42.6459ZM44.5791 41.2179V42.7439H41.5971V50.9199H39.8191V42.7439H36.8371V41.2179H44.5791Z" fill="#6A7787"/>
<path d="M36.0611 11.778C35.9595 11.2483 35.8231 10.7265 35.6526 10.216C35.2433 8.98113 34.6748 7.80862 33.9623 6.72998C33.6065 6.20422 33.2175 5.70314 32.7979 5.22998C31.4925 3.66096 29.8832 2.39046 28.0734 1.49998C27.5169 1.1983 26.9316 0.956681 26.3269 0.778978C25.1211 0.354934 23.8622 0.112763 22.5892 0.0599784C22.341 0.00805536 22.0874 -0.0120969 21.8343 -2.16058e-05C21.561 -0.0099537 21.2875 0.0101599 21.0183 0.0599784C19.7472 0.113983 18.4903 0.356821 17.2865 0.780978C16.6853 0.969196 16.1009 1.21042 15.5399 1.50198C13.73 2.36418 12.1191 3.61393 10.8145 5.16798C10.406 5.64898 9.99846 6.18998 9.65012 6.66798C8.9563 7.70662 8.40634 8.83985 8.01611 10.035C7.83392 10.5478 7.67813 11.0702 7.54939 11.6C7.36588 12.7311 7.26855 13.8752 7.2583 15.022C7.24869 15.2639 7.26824 15.5061 7.31652 15.743C7.34306 16.3866 7.40136 17.0284 7.49117 17.666C7.78378 19.4306 8.39603 21.1227 9.29595 22.654C9.60502 23.2216 9.95601 23.7639 10.3458 24.276C11.1257 25.3292 12.0497 26.2602 13.0889 27.04C13.4974 27.34 13.9622 27.701 14.3717 27.94C15.4709 28.6063 16.6458 29.1303 17.8696 29.5C18.4518 29.68 19.0942 29.8 19.6773 29.921C20.3905 30.0406 21.1118 30.1008 21.8343 30.101C22.5956 30.1031 23.3558 30.0429 24.1078 29.921C24.7175 29.8158 25.3211 29.6753 25.9155 29.5C27.1456 29.1203 28.3218 28.5749 29.4134 27.878C29.8802 27.578 30.2867 27.278 30.6962 26.978C31.6893 26.1648 32.5891 25.2375 33.3781 24.214C33.7284 23.673 34.0777 23.192 34.428 22.592C35.2572 21.081 35.8292 19.4349 36.1193 17.725C36.2379 17.0913 36.2964 16.4473 36.2939 15.802C36.2939 15.562 36.3521 15.321 36.3521 15.081C36.4081 13.9713 36.3101 12.8591 36.0611 11.778ZM26.616 2.58398C28.8181 3.49395 30.7343 5.01145 32.1546 6.96998L30.3517 12.018L27.4408 12.979L22.5892 9.37398V5.58798L26.616 2.58398ZM26.3832 14.184L24.6366 19.712H19.0359L17.2894 14.184L21.8372 10.759L26.3851 14.184H26.3832ZM21.0193 1.68398C21.3104 1.68398 21.5442 1.62398 21.8353 1.62398C22.1086 1.61405 22.3822 1.63416 22.6513 1.68398C23.3577 1.72487 24.0596 1.82521 24.7501 1.98398L22.6513 3.54498L21.8353 4.14498L21.0193 3.54498L18.9195 1.98298C19.61 1.82421 20.3119 1.72387 21.0183 1.68298L21.0193 1.68398ZM17.0546 2.58398L21.0775 5.58398V9.37398L16.2958 12.979L13.3218 11.958L11.5151 7.02998C12.9169 5.03672 14.8393 3.49488 17.0585 2.58398H17.0546ZM9.12421 12.2C9.24342 11.6683 9.39807 11.1457 9.58705 10.636C9.81992 9.97498 10.112 9.31398 10.4031 8.65298L11.3356 11.237L11.6858 12.137L10.8698 12.798L8.89133 14.421C8.90818 13.6752 8.98608 12.9322 9.12421 12.2ZM8.89133 16.466L12.6222 13.4L15.7126 14.482L17.5785 20.371L16.1794 22.413L11.1066 22.593C9.92705 20.7497 9.16956 18.6543 8.89133 16.465V16.466ZM15.2469 26.566C14.7802 26.266 14.3736 25.966 13.9059 25.666C13.3346 25.198 12.7894 24.6972 12.2729 24.166L14.9548 24.046L15.8281 23.986L16.1794 25L17.0526 27.4C16.4241 27.1844 15.8187 26.9029 15.2459 26.56L15.2469 26.566ZM24.7511 28.066C23.7986 28.3075 22.8211 28.4288 21.8402 28.427C20.9004 28.4163 19.9636 28.3159 19.0418 28.127L17.4087 23.44L18.8642 21.277H24.8112L26.3269 23.377L24.7511 28.066ZM29.8239 25.542C29.4244 25.8824 28.9949 26.1837 28.5411 26.442C27.9357 26.8336 27.2904 27.1559 26.617 27.403L27.433 24.939L27.7833 23.917H28.6566L31.3385 23.977C30.9244 24.5835 30.4117 25.1116 29.8229 25.538L29.8239 25.542ZM32.6223 22.477L27.4913 22.357L26.0358 20.374L27.8435 14.545L30.9921 13.523L34.6657 16.523C34.5281 18.6623 33.8207 20.7211 32.6213 22.473L32.6223 22.477ZM32.8551 12.863L31.9819 12.142L32.273 11.361L33.2646 8.66098C33.6041 9.31889 33.896 10.0017 34.1379 10.704C34.3011 11.2167 34.4375 11.7381 34.5464 12.266C34.6847 12.9787 34.7626 13.7024 34.7793 14.429L32.8551 12.863Z" fill="#6A7787"/>
</svg>
